<svg xmlns="http://www.w3.org/2000/svg" xmlns:xlink="http://www.w3.org/1999/xlink" width="540" zoomAndPan="magnify" viewBox="0 0 404.88 89.999999" height="120" preserveAspectRatio="xMidYMid meet" version="1.0"><defs><g/><clipPath id="308bb34731"><path d="M 1 3 L 75 3 L 75 88.644531 L 1 88.644531 Z M 1 3 " clip-rule="nonzero"/></clipPath></defs><g clip-path="url(#308bb34731)"><path fill="#09090b" d="M 12.257812 4.257812 C 3.871094 5.839844 0.0585938 16.472656 1.617188 25.960938 C 4.59375 44.117188 19.84375 73.382812 31.789062 87.503906 C 32.378906 88.160156 33.332031 88.351562 34.128906 87.96875 C 34.925781 87.589844 35.375 86.730469 35.238281 85.855469 C 32.796875 70.65625 31.90625 54.976562 37.835938 53.558594 C 49.332031 50.808594 51.296875 68.394531 51.59375 76.570312 C 51.609375 77.128906 51.984375 77.617188 52.523438 77.773438 C 53.0625 77.929688 53.640625 77.726562 53.957031 77.261719 C 72.234375 50.078125 81.417969 9.09375 68.222656 5.621094 C 56.644531 2.574219 51.625 17.4375 35.121094 11.945312 C 37.972656 15.175781 45.226562 19.980469 59.960938 15.992188 C 59.960938 15.992188 47.867188 24.195312 36.375 17.21875 C 27.679688 11.945312 25.914062 1.675781 12.257812 4.257812 Z M 12.257812 4.257812 " fill-opacity="1" fill-rule="evenodd"/></g><g fill="#09090b" fill-opacity="1"><g transform="translate(80.129583, 48.146762)"><g><path d="M 16.546875 0.46875 C 13.691406 0.46875 11.117188 -0.144531 8.828125 -1.375 C 6.546875 -2.601562 4.757812 -4.296875 3.46875 -6.453125 C 2.175781 -8.609375 1.53125 -11.03125 1.53125 -13.71875 C 1.53125 -16.414062 2.175781 -18.84375 3.46875 -21 C 4.757812 -23.15625 6.546875 -24.84375 8.828125 -26.0625 C 11.117188 -27.289062 13.691406 -27.90625 16.546875 -27.90625 C 19.390625 -27.90625 21.945312 -27.289062 24.21875 -26.0625 C 26.5 -24.84375 28.289062 -23.15625 29.59375 -21 C 30.90625 -18.84375 31.5625 -16.414062 31.5625 -13.71875 C 31.5625 -11.03125 30.90625 -8.609375 29.59375 -6.453125 C 28.289062 -4.296875 26.5 -2.601562 24.21875 -1.375 C 21.945312 -0.144531 19.390625 0.46875 16.546875 0.46875 Z M 16.546875 -4.9375 C 18.160156 -4.9375 19.617188 -5.304688 20.921875 -6.046875 C 22.234375 -6.796875 23.257812 -7.835938 24 -9.171875 C 24.75 -10.503906 25.125 -12.019531 25.125 -13.71875 C 25.125 -15.414062 24.75 -16.929688 24 -18.265625 C 23.257812 -19.597656 22.234375 -20.632812 20.921875 -21.375 C 19.617188 -22.125 18.160156 -22.5 16.546875 -22.5 C 14.921875 -22.5 13.453125 -22.125 12.140625 -21.375 C 10.835938 -20.632812 9.8125 -19.597656 9.0625 -18.265625 C 8.320312 -16.929688 7.953125 -15.414062 7.953125 -13.71875 C 7.953125 -12.019531 8.320312 -10.503906 9.0625 -9.171875 C 9.8125 -7.835938 10.835938 -6.796875 12.140625 -6.046875 C 13.453125 -5.304688 14.921875 -4.9375 16.546875 -4.9375 Z M 16.546875 -4.9375 "/></g></g></g><g fill="#09090b" fill-opacity="1"><g transform="translate(113.203353, 48.146762)"><g><path d="M 3.25 -27.4375 L 15.71875 -27.4375 C 18.695312 -27.4375 21.328125 -26.867188 23.609375 -25.734375 C 25.898438 -24.597656 27.679688 -23 28.953125 -20.9375 C 30.222656 -18.875 30.859375 -16.46875 30.859375 -13.71875 C 30.859375 -10.976562 30.222656 -8.570312 28.953125 -6.5 C 27.679688 -4.4375 25.898438 -2.835938 23.609375 -1.703125 C 21.328125 -0.566406 18.695312 0 15.71875 0 L 3.25 0 Z M 15.40625 -5.21875 C 18.144531 -5.21875 20.332031 -5.976562 21.96875 -7.5 C 23.601562 -9.03125 24.421875 -11.101562 24.421875 -13.71875 C 24.421875 -16.332031 23.601562 -18.40625 21.96875 -19.9375 C 20.332031 -21.46875 18.144531 -22.234375 15.40625 -22.234375 L 9.609375 -22.234375 L 9.609375 -5.21875 Z M 15.40625 -5.21875 "/></g></g></g><g fill="#09090b" fill-opacity="1"><g transform="translate(145.571753, 48.146762)"><g><path d="M 16.546875 0.46875 C 13.691406 0.46875 11.117188 -0.144531 8.828125 -1.375 C 6.546875 -2.601562 4.757812 -4.296875 3.46875 -6.453125 C 2.175781 -8.609375 1.53125 -11.03125 1.53125 -13.71875 C 1.53125 -16.414062 2.175781 -18.84375 3.46875 -21 C 4.757812 -23.15625 6.546875 -24.84375 8.828125 -26.0625 C 11.117188 -27.289062 13.691406 -27.90625 16.546875 -27.90625 C 19.390625 -27.90625 21.945312 -27.289062 24.21875 -26.0625 C 26.5 -24.84375 28.289062 -23.15625 29.59375 -21 C 30.90625 -18.84375 31.5625 -16.414062 31.5625 -13.71875 C 31.5625 -11.03125 30.90625 -8.609375 29.59375 -6.453125 C 28.289062 -4.296875 26.5 -2.601562 24.21875 -1.375 C 21.945312 -0.144531 19.390625 0.46875 16.546875 0.46875 Z M 16.546875 -4.9375 C 18.160156 -4.9375 19.617188 -5.304688 20.921875 -6.046875 C 22.234375 -6.796875 23.257812 -7.835938 24 -9.171875 C 24.75 -10.503906 25.125 -12.019531 25.125 -13.71875 C 25.125 -15.414062 24.75 -16.929688 24 -18.265625 C 23.257812 -19.597656 22.234375 -20.632812 20.921875 -21.375 C 19.617188 -22.125 18.160156 -22.5 16.546875 -22.5 C 14.921875 -22.5 13.453125 -22.125 12.140625 -21.375 C 10.835938 -20.632812 9.8125 -19.597656 9.0625 -18.265625 C 8.320312 -16.929688 7.953125 -15.414062 7.953125 -13.71875 C 7.953125 -12.019531 8.320312 -10.503906 9.0625 -9.171875 C 9.8125 -7.835938 10.835938 -6.796875 12.140625 -6.046875 C 13.453125 -5.304688 14.921875 -4.9375 16.546875 -4.9375 Z M 16.546875 -4.9375 "/></g></g></g><g fill="#09090b" fill-opacity="1"><g transform="translate(178.645523, 48.146762)"><g><path d="M 28.421875 -27.4375 L 28.421875 0 L 23.203125 0 L 9.53125 -16.65625 L 9.53125 0 L 3.25 0 L 3.25 -27.4375 L 8.5 -27.4375 L 22.15625 -10.78125 L 22.15625 -27.4375 Z M 28.421875 -27.4375 "/></g></g></g><g fill="#09090b" fill-opacity="1"><g transform="translate(210.308569, 48.146762)"><g><path d="M 8.9375 -22.265625 L 0.15625 -22.265625 L 0.15625 -27.4375 L 24.078125 -27.4375 L 24.078125 -22.265625 L 15.296875 -22.265625 L 15.296875 0 L 8.9375 0 Z M 8.9375 -22.265625 "/></g></g></g><g fill="#09090b" fill-opacity="1"><g transform="translate(234.526094, 48.146762)"><g><path d="M 16.546875 0.46875 C 13.691406 0.46875 11.117188 -0.144531 8.828125 -1.375 C 6.546875 -2.601562 4.757812 -4.296875 3.46875 -6.453125 C 2.175781 -8.609375 1.53125 -11.03125 1.53125 -13.71875 C 1.53125 -16.414062 2.175781 -18.84375 3.46875 -21 C 4.757812 -23.15625 6.546875 -24.84375 8.828125 -26.0625 C 11.117188 -27.289062 13.691406 -27.90625 16.546875 -27.90625 C 19.390625 -27.90625 21.945312 -27.289062 24.21875 -26.0625 C 26.5 -24.84375 28.289062 -23.15625 29.59375 -21 C 30.90625 -18.84375 31.5625 -16.414062 31.5625 -13.71875 C 31.5625 -11.03125 30.90625 -8.609375 29.59375 -6.453125 C 28.289062 -4.296875 26.5 -2.601562 24.21875 -1.375 C 21.945312 -0.144531 19.390625 0.46875 16.546875 0.46875 Z M 16.546875 -4.9375 C 18.160156 -4.9375 19.617188 -5.304688 20.921875 -6.046875 C 22.234375 -6.796875 23.257812 -7.835938 24 -9.171875 C 24.75 -10.503906 25.125 -12.019531 25.125 -13.71875 C 25.125 -15.414062 24.75 -16.929688 24 -18.265625 C 23.257812 -19.597656 22.234375 -20.632812 20.921875 -21.375 C 19.617188 -22.125 18.160156 -22.5 16.546875 -22.5 C 14.921875 -22.5 13.453125 -22.125 12.140625 -21.375 C 10.835938 -20.632812 9.8125 -19.597656 9.0625 -18.265625 C 8.320312 -16.929688 7.953125 -15.414062 7.953125 -13.71875 C 7.953125 -12.019531 8.320312 -10.503906 9.0625 -9.171875 C 9.8125 -7.835938 10.835938 -6.796875 12.140625 -6.046875 C 13.453125 -5.304688 14.921875 -4.9375 16.546875 -4.9375 Z M 16.546875 -4.9375 "/></g></g></g><g fill="#09090b" fill-opacity="1"><g transform="translate(267.599864, 48.146762)"><g><path d="M 15.125 -27.4375 C 17.5625 -27.4375 19.675781 -27.03125 21.46875 -26.21875 C 23.257812 -25.414062 24.632812 -24.269531 25.59375 -22.78125 C 26.5625 -21.289062 27.046875 -19.523438 27.046875 -17.484375 C 27.046875 -15.472656 26.5625 -13.710938 25.59375 -12.203125 C 24.632812 -10.703125 23.257812 -9.550781 21.46875 -8.75 C 19.675781 -7.957031 17.5625 -7.5625 15.125 -7.5625 L 9.609375 -7.5625 L 9.609375 0 L 3.25 0 L 3.25 -27.4375 Z M 14.78125 -12.734375 C 16.6875 -12.734375 18.132812 -13.144531 19.125 -13.96875 C 20.125 -14.789062 20.625 -15.960938 20.625 -17.484375 C 20.625 -19.023438 20.125 -20.207031 19.125 -21.03125 C 18.132812 -21.851562 16.6875 -22.265625 14.78125 -22.265625 L 9.609375 -22.265625 L 9.609375 -12.734375 Z M 14.78125 -12.734375 "/></g></g></g><g fill="#09090b" fill-opacity="1"><g transform="translate(296.284705, 48.146762)"><g><path d="M 20.734375 0 L 15.453125 -7.640625 L 9.609375 -7.640625 L 9.609375 0 L 3.25 0 L 3.25 -27.4375 L 15.125 -27.4375 C 17.5625 -27.4375 19.675781 -27.03125 21.46875 -26.21875 C 23.257812 -25.414062 24.632812 -24.269531 25.59375 -22.78125 C 26.5625 -21.289062 27.046875 -19.523438 27.046875 -17.484375 C 27.046875 -15.441406 26.554688 -13.679688 25.578125 -12.203125 C 24.597656 -10.734375 23.207031 -9.609375 21.40625 -8.828125 L 27.5625 0 Z M 20.625 -17.484375 C 20.625 -19.023438 20.125 -20.207031 19.125 -21.03125 C 18.132812 -21.851562 16.6875 -22.265625 14.78125 -22.265625 L 9.609375 -22.265625 L 9.609375 -12.703125 L 14.78125 -12.703125 C 16.6875 -12.703125 18.132812 -13.117188 19.125 -13.953125 C 20.125 -14.785156 20.625 -15.960938 20.625 -17.484375 Z M 20.625 -17.484375 "/></g></g></g><g fill="#09090b" fill-opacity="1"><g transform="translate(325.087094, 48.146762)"><g><path d="M 3.25 -27.4375 L 9.609375 -27.4375 L 9.609375 0 L 3.25 0 Z M 3.25 -27.4375 "/></g></g></g><g fill="#09090b" fill-opacity="1"><g transform="translate(337.940412, 48.146762)"><g><path d="M 28.21875 0 L 28.1875 -16.46875 L 20.109375 -2.90625 L 17.25 -2.90625 L 9.21875 -16.109375 L 9.21875 0 L 3.25 0 L 3.25 -27.4375 L 8.5 -27.4375 L 18.78125 -10.390625 L 28.890625 -27.4375 L 34.109375 -27.4375 L 34.1875 0 Z M 28.21875 0 "/></g></g></g><g fill="#09090b" fill-opacity="1"><g transform="translate(375.363919, 48.146762)"><g><path d="M 24.5 -5.09375 L 24.5 0 L 3.25 0 L 3.25 -27.4375 L 24 -27.4375 L 24 -22.34375 L 9.5625 -22.34375 L 9.5625 -16.390625 L 22.3125 -16.390625 L 22.3125 -11.453125 L 9.5625 -11.453125 L 9.5625 -5.09375 Z M 24.5 -5.09375 "/></g></g></g><g fill="#09090b" fill-opacity="1"><g transform="translate(107.491293, 74.256791)"><g><path d="M 6.96875 0.234375 C 5.894531 0.234375 4.960938 0.0507812 4.171875 -0.3125 C 3.378906 -0.675781 2.722656 -1.171875 2.203125 -1.796875 C 1.691406 -2.421875 1.304688 -3.140625 1.046875 -3.953125 C 0.796875 -4.765625 0.671875 -5.617188 0.671875 -6.515625 C 0.671875 -7.410156 0.796875 -8.265625 1.046875 -9.078125 C 1.304688 -9.890625 1.691406 -10.609375 2.203125 -11.234375 C 2.722656 -11.859375 3.378906 -12.347656 4.171875 -12.703125 C 4.960938 -13.066406 5.894531 -13.25 6.96875 -13.25 C 8.039062 -13.25 8.96875 -13.066406 9.75 -12.703125 C 10.53125 -12.335938 11.15625 -11.832031 11.625 -11.1875 C 12.09375 -10.539062 12.382812 -9.789062 12.5 -8.9375 L 9.8125 -8.9375 C 9.707031 -9.625 9.390625 -10.144531 8.859375 -10.5 C 8.328125 -10.863281 7.675781 -11.046875 6.90625 -11.046875 C 6.101562 -11.046875 5.429688 -10.851562 4.890625 -10.46875 C 4.347656 -10.09375 3.929688 -9.5625 3.640625 -8.875 C 3.359375 -8.195312 3.21875 -7.410156 3.21875 -6.515625 C 3.21875 -5.617188 3.359375 -4.828125 3.640625 -4.140625 C 3.929688 -3.453125 4.347656 -2.914062 4.890625 -2.53125 C 5.429688 -2.144531 6.101562 -1.953125 6.90625 -1.953125 C 7.675781 -1.953125 8.320312 -2.140625 8.84375 -2.515625 C 9.363281 -2.890625 9.6875 -3.460938 9.8125 -4.234375 L 12.5 -4.234375 C 12.382812 -3.328125 12.09375 -2.539062 11.625 -1.875 C 11.15625 -1.207031 10.53125 -0.6875 9.75 -0.3125 C 8.96875 0.0507812 8.039062 0.234375 6.96875 0.234375 Z M 6.96875 0.234375 "/></g></g></g><g fill="#09090b" fill-opacity="1"><g transform="translate(129.439707, 74.256791)"><g><path d="M 9.125 0 L 1.15625 0 L 1.15625 -13 L 3.609375 -13 L 3.609375 -2.203125 L 9.125 -2.203125 Z M 9.125 0 "/></g></g></g><g fill="#09090b" fill-opacity="1"><g transform="translate(147.622462, 74.256791)"><g><path d="M 3.140625 -13.921875 L 1.359375 -13.921875 L 3.328125 -16.453125 L 5.6875 -16.453125 Z M 3.609375 0 L 1.15625 0 L 1.15625 -13 L 3.609375 -13 Z M 3.609375 0 "/></g></g></g><g fill="#09090b" fill-opacity="1"><g transform="translate(161.27281, 74.256791)"><g><path d="M 3.609375 0 L 1.15625 0 L 1.15625 -13 L 3.921875 -13 L 9.25 -3.703125 L 9.25 -13 L 11.71875 -13 L 11.71875 0 L 8.9375 0 L 3.609375 -9.328125 Z M 3.609375 0 "/></g></g></g><g fill="#09090b" fill-opacity="1"><g transform="translate(183.016748, 74.256791)"><g><path d="M 3.609375 0 L 1.15625 0 L 1.15625 -13 L 3.609375 -13 Z M 3.609375 0 "/></g></g></g><g fill="#09090b" fill-opacity="1"><g transform="translate(196.667101, 74.256791)"><g><path d="M 6.96875 0.234375 C 5.894531 0.234375 4.960938 0.0507812 4.171875 -0.3125 C 3.378906 -0.675781 2.722656 -1.171875 2.203125 -1.796875 C 1.691406 -2.421875 1.304688 -3.140625 1.046875 -3.953125 C 0.796875 -4.765625 0.671875 -5.617188 0.671875 -6.515625 C 0.671875 -7.410156 0.796875 -8.265625 1.046875 -9.078125 C 1.304688 -9.890625 1.691406 -10.609375 2.203125 -11.234375 C 2.722656 -11.859375 3.378906 -12.347656 4.171875 -12.703125 C 4.960938 -13.066406 5.894531 -13.25 6.96875 -13.25 C 8.039062 -13.25 8.96875 -13.066406 9.75 -12.703125 C 10.53125 -12.335938 11.15625 -11.832031 11.625 -11.1875 C 12.09375 -10.539062 12.382812 -9.789062 12.5 -8.9375 L 9.8125 -8.9375 C 9.707031 -9.625 9.390625 -10.144531 8.859375 -10.5 C 8.328125 -10.863281 7.675781 -11.046875 6.90625 -11.046875 C 6.101562 -11.046875 5.429688 -10.851562 4.890625 -10.46875 C 4.347656 -10.09375 3.929688 -9.5625 3.640625 -8.875 C 3.359375 -8.195312 3.21875 -7.410156 3.21875 -6.515625 C 3.21875 -5.617188 3.359375 -4.828125 3.640625 -4.140625 C 3.929688 -3.453125 4.347656 -2.914062 4.890625 -2.53125 C 5.429688 -2.144531 6.101562 -1.953125 6.90625 -1.953125 C 7.675781 -1.953125 8.320312 -2.140625 8.84375 -2.515625 C 9.363281 -2.890625 9.6875 -3.460938 9.8125 -4.234375 L 12.5 -4.234375 C 12.382812 -3.328125 12.09375 -2.539062 11.625 -1.875 C 11.15625 -1.207031 10.53125 -0.6875 9.75 -0.3125 C 8.96875 0.0507812 8.039062 0.234375 6.96875 0.234375 Z M 6.96875 0.234375 "/></g></g></g><g fill="#09090b" fill-opacity="1"><g transform="translate(218.615518, 74.256791)"><g><path d="M 2.6875 0 L 0.125 0 L 4.703125 -13 L 7.390625 -13 L 11.984375 0 L 9.40625 0 L 8.53125 -2.671875 L 3.5625 -2.671875 Z M 6.046875 -10.328125 L 4.265625 -4.828125 L 7.84375 -4.828125 Z M 6.046875 -10.328125 "/></g></g></g><g fill="#09090b" fill-opacity="1"><g transform="translate(239.592696, 74.256791)"><g/></g></g><g fill="#09090b" fill-opacity="1"><g transform="translate(253.038588, 74.256791)"><g><path d="M 4.9375 0 L 1.15625 0 L 1.15625 -13 L 4.9375 -13 C 7.144531 -13 8.832031 -12.4375 10 -11.3125 C 11.164062 -10.1875 11.75 -8.582031 11.75 -6.5 C 11.75 -4.414062 11.160156 -2.8125 9.984375 -1.6875 C 8.816406 -0.5625 7.132812 0 4.9375 0 Z M 3.609375 -10.8125 L 3.609375 -2.203125 L 4.90625 -2.203125 C 5.769531 -2.203125 6.53125 -2.332031 7.1875 -2.59375 C 7.851562 -2.863281 8.367188 -3.3125 8.734375 -3.9375 C 9.109375 -4.570312 9.296875 -5.425781 9.296875 -6.5 C 9.296875 -7.507812 9.113281 -8.328125 8.75 -8.953125 C 8.382812 -9.585938 7.875 -10.054688 7.21875 -10.359375 C 6.5625 -10.660156 5.796875 -10.8125 4.921875 -10.8125 Z M 3.609375 -10.8125 "/></g></g></g><g fill="#09090b" fill-opacity="1"><g transform="translate(274.322472, 74.256791)"><g><path d="M 9.84375 0 L 1.15625 0 L 1.15625 -13 L 9.84375 -13 L 9.84375 -10.8125 L 3.609375 -10.8125 L 3.609375 -7.609375 L 9.1875 -7.609375 L 9.1875 -5.421875 L 3.609375 -5.421875 L 3.609375 -2.203125 L 9.84375 -2.203125 Z M 9.84375 0 "/></g></g></g><g fill="#09090b" fill-opacity="1"><g transform="translate(293.783175, 74.256791)"><g><path d="M 3.609375 0 L 1.15625 0 L 1.15625 -13 L 3.921875 -13 L 9.25 -3.703125 L 9.25 -13 L 11.71875 -13 L 11.71875 0 L 8.9375 0 L 3.609375 -9.328125 Z M 3.609375 0 "/></g></g></g><g fill="#09090b" fill-opacity="1"><g transform="translate(315.527117, 74.256791)"><g><path d="M 6.59375 0 L 4.140625 0 L 4.140625 -10.8125 L 0.171875 -10.8125 L 0.171875 -13 L 10.546875 -13 L 10.546875 -10.8125 L 6.59375 -10.8125 Z M 6.59375 0 "/></g></g></g><g fill="#09090b" fill-opacity="1"><g transform="translate(335.141172, 74.256791)"><g><path d="M 2.6875 0 L 0.125 0 L 4.703125 -13 L 7.390625 -13 L 11.984375 0 L 9.40625 0 L 8.53125 -2.671875 L 3.5625 -2.671875 Z M 6.046875 -10.328125 L 4.265625 -4.828125 L 7.84375 -4.828125 Z M 6.046875 -10.328125 "/></g></g></g><g fill="#09090b" fill-opacity="1"><g transform="translate(356.118336, 74.256791)"><g><path d="M 9.125 0 L 1.15625 0 L 1.15625 -13 L 3.609375 -13 L 3.609375 -2.203125 L 9.125 -2.203125 Z M 9.125 0 "/></g></g></g></svg>